<svg width="24" height="24" viewBox="0 0 24 24" fill="none" xmlns="http://www.w3.org/2000/svg">
<path d="M7.05629 2.41805L8.22329 2.06705C8.86258 1.87428 9.55018 1.92068 10.1578 2.19761C10.7654 2.47454 11.2514 2.96308 11.5253 3.57205L12.4273 5.57805C12.6628 6.10186 12.7283 6.68623 12.6148 7.24919C12.5013 7.81215 12.2144 8.32544 11.7943 8.71705L10.3003 10.1101C10.2566 10.1508 10.229 10.2057 10.2223 10.2651C10.1783 10.6621 10.4473 11.4351 11.0673 12.5101C11.5183 13.2911 11.9273 13.8401 12.2743 14.1471C12.5163 14.3621 12.6493 14.4081 12.7063 14.3921L14.7163 13.7771C15.2652 13.6092 15.8529 13.6172 16.397 13.8001C16.9411 13.9831 17.4143 14.3317 17.7503 14.7971L19.0313 16.5731C19.4208 17.1131 19.6012 17.7762 19.5388 18.4392C19.4765 19.1022 19.1757 19.7201 18.6923 20.1781L17.8063 21.0181C17.3361 21.4634 16.7585 21.7793 16.1299 21.9351C15.5013 22.0909 14.8431 22.0812 14.2193 21.9071C11.4653 21.1381 8.99629 18.8141 6.78429 14.9831C4.56929 11.1471 3.79229 7.84305 4.50829 5.07005C4.66947 4.44639 4.98858 3.87476 5.43487 3.41025C5.88115 2.94575 6.43957 2.60404 7.05629 2.41805ZM7.48929 3.85505C7.11937 3.96651 6.78437 4.17134 6.51657 4.44982C6.24878 4.7283 6.0572 5.07105 5.96029 5.44505C5.35829 7.77705 6.04729 10.7061 8.08329 14.2331C10.1163 17.7551 12.3053 19.8151 14.6233 20.4631C14.9974 20.5673 15.3922 20.5728 15.7691 20.4793C16.146 20.3857 16.4923 20.1961 16.7743 19.9291L17.6613 19.0891C17.8811 18.8808 18.0179 18.5999 18.0462 18.2985C18.0745 17.997 17.9925 17.6956 17.8153 17.4501L16.5353 15.6751C16.3826 15.4633 16.1673 15.3046 15.9198 15.2214C15.6723 15.1382 15.405 15.1346 15.1553 15.2111L13.1403 15.8281C11.9703 16.1761 10.9083 15.2351 9.76829 13.2601C9.00029 11.9301 8.64229 10.9001 8.73129 10.0991C8.77829 9.68305 8.97129 9.29905 9.27729 9.01305L10.7713 7.62005C10.9623 7.44207 11.0928 7.20874 11.1445 6.95281C11.1961 6.69688 11.1663 6.43119 11.0593 6.19305L10.1573 4.18705C10.0328 3.91046 9.81201 3.68857 9.53604 3.56272C9.26006 3.43688 8.94775 3.41567 8.65729 3.50305L7.48929 3.85505Z" fill="white"/>
</svg>
