<svg width="28" height="28" viewBox="0 0 28 28" fill="none" xmlns="http://www.w3.org/2000/svg">
<path d="M21.8753 4.66667C22.3733 4.66667 22.8663 4.76475 23.3263 4.9553C23.7864 5.14584 24.2043 5.42514 24.5564 5.77723C24.9085 6.12931 25.1878 6.5473 25.3784 7.00733C25.5689 7.46736 25.667 7.96041 25.667 8.45834V21.875C25.667 22.3729 25.5689 22.866 25.3784 23.326C25.1878 23.786 24.9085 24.204 24.5564 24.5561C24.2043 24.9082 23.7864 25.1875 23.3263 25.378C22.8663 25.5686 22.3733 25.6667 21.8753 25.6667H8.45866C7.96073 25.6667 7.46768 25.5686 7.00765 25.378C6.54762 25.1875 6.12963 24.9082 5.77755 24.5561C5.42546 24.204 5.14616 23.786 4.95562 23.326C4.76507 22.866 4.66699 22.3729 4.66699 21.875V14.5857C5.21999 14.8167 5.80683 14.9823 6.41699 15.078V21.875C6.41699 22.1177 6.45899 22.351 6.53716 22.568L13.3307 15.9168C13.7964 15.4609 14.415 15.1946 15.0662 15.1696C15.7174 15.1445 16.3547 15.3627 16.854 15.7815L17.0033 15.9168L23.7957 22.5692C23.8738 22.3522 23.917 22.1188 23.917 21.875V8.45834C23.917 7.91685 23.7019 7.39755 23.319 7.01466C22.9361 6.63178 22.4168 6.41667 21.8753 6.41667H15.0783C14.9855 5.8156 14.8201 5.22799 14.586 4.66667H21.8753ZM14.6525 17.0847L14.5545 17.1663L7.77966 23.8012C7.99199 23.8758 8.22066 23.9167 8.45866 23.9167H21.8753C22.1122 23.9167 22.3408 23.8758 22.552 23.8012L15.7795 17.1675C15.6317 17.0227 15.4375 16.9349 15.2312 16.9198C15.0248 16.9046 14.8198 16.963 14.6525 17.0847ZM18.961 8.75C19.6578 8.75 20.3261 9.02681 20.8188 9.51953C21.3115 10.0123 21.5883 10.6805 21.5883 11.3773C21.5883 12.0742 21.3115 12.7424 20.8188 13.2351C20.3261 13.7279 19.6578 14.0047 18.961 14.0047C18.2642 14.0047 17.5959 13.7279 17.1032 13.2351C16.6105 12.7424 16.3337 12.0742 16.3337 11.3773C16.3337 10.6805 16.6105 10.0123 17.1032 9.51953C17.5959 9.02681 18.2642 8.75 18.961 8.75ZM7.58366 1.16667C8.42631 1.16667 9.2607 1.33264 10.0392 1.65511C10.8177 1.97758 11.5251 2.45023 12.1209 3.04607C12.7168 3.64191 13.1894 4.34928 13.5119 5.12779C13.8344 5.90629 14.0003 6.74069 14.0003 7.58334C14.0003 8.42599 13.8344 9.26038 13.5119 10.0389C13.1894 10.8174 12.7168 11.5248 12.1209 12.1206C11.5251 12.7164 10.8177 13.1891 10.0392 13.5116C9.2607 13.834 8.42631 14 7.58366 14C5.88185 14 4.24975 13.324 3.04639 12.1206C1.84303 10.9172 1.16699 9.28514 1.16699 7.58334C1.16699 5.88153 1.84303 4.24943 3.04639 3.04607C4.24975 1.84271 5.88185 1.16667 7.58366 1.16667ZM18.961 10.5C18.8458 10.5 18.7317 10.5227 18.6252 10.5668C18.5188 10.6109 18.4221 10.6755 18.3406 10.757C18.2592 10.8384 18.1945 10.9352 18.1504 11.0416C18.1064 11.148 18.0837 11.2621 18.0837 11.3773C18.0837 11.4926 18.1064 11.6066 18.1504 11.7131C18.1945 11.8195 18.2592 11.9162 18.3406 11.9977C18.4221 12.0792 18.5188 12.1438 18.6252 12.1879C18.7317 12.232 18.8458 12.2547 18.961 12.2547C19.1937 12.2547 19.4168 12.1622 19.5814 11.9977C19.7459 11.8332 19.8383 11.61 19.8383 11.3773C19.8383 11.1447 19.7459 10.9215 19.5814 10.757C19.4168 10.5924 19.1937 10.5 18.961 10.5ZM7.58366 3.50001L7.47866 3.50817C7.3621 3.52947 7.2548 3.58575 7.17102 3.66953C7.08723 3.75331 7.03095 3.86062 7.00966 3.97717L7.00033 4.08334V7H4.08133L3.97633 7.00934C3.85977 7.03063 3.75246 7.08691 3.66868 7.17069C3.5849 7.25448 3.52862 7.36178 3.50733 7.47834L3.49799 7.58334L3.50733 7.68834C3.52862 7.80489 3.5849 7.9122 3.66868 7.99598C3.75246 8.07976 3.85977 8.13604 3.97633 8.15734L4.08133 8.16667H7.00033V11.0868L7.00966 11.1918C7.03095 11.3084 7.08723 11.4157 7.17102 11.4995C7.2548 11.5833 7.3621 11.6395 7.47866 11.6608L7.58366 11.6713L7.68866 11.6608C7.80521 11.6395 7.91252 11.5833 7.9963 11.4995C8.08008 11.4157 8.13636 11.3084 8.15766 11.1918L8.16699 11.0868V8.16667H11.0895L11.1945 8.15734C11.311 8.13604 11.4184 8.07976 11.5021 7.99598C11.5859 7.9122 11.6422 7.80489 11.6635 7.68834L11.6728 7.58334L11.6635 7.47834C11.6421 7.36162 11.5857 7.2542 11.5017 7.1704C11.4177 7.0866 11.3101 7.03042 11.1933 7.00934L11.0883 7H8.16699V4.08334L8.15766 3.97834C8.13658 3.86157 8.08039 3.75401 7.99659 3.67C7.9128 3.58599 7.80537 3.52954 7.68866 3.50817L7.58366 3.50001Z" fill="#404040"/>
</svg>
