<svg width="18" height="16" viewBox="0 0 18 16" fill="none" xmlns="http://www.w3.org/2000/svg">
<path d="M10.6045 0.0857468C10.9312 0.0857206 11.2522 0.171059 11.5358 0.333307C11.8194 0.495555 12.0556 0.729081 12.2212 1.01075L12.8995 2.16658H14.6253C14.981 2.16658 15.3332 2.23663 15.6618 2.37274C15.9904 2.50885 16.2889 2.70834 16.5404 2.95983C16.7919 3.21132 16.9914 3.50989 17.1275 3.83848C17.2636 4.16707 17.3337 4.51925 17.3337 4.87491V12.7916C17.3337 13.1472 17.2636 13.4994 17.1275 13.828C16.9914 14.1566 16.7919 14.4552 16.5404 14.7067C16.2889 14.9582 15.9904 15.1576 15.6618 15.2938C15.3332 15.4299 14.981 15.4999 14.6253 15.4999H3.37533C2.65703 15.4999 1.96816 15.2146 1.46024 14.7067C0.952334 14.1988 0.666992 13.5099 0.666992 12.7916V4.87491C0.666992 4.15662 0.952334 3.46774 1.46024 2.95983C1.96816 2.45192 2.65703 2.16658 3.37533 2.16658H5.10866L5.83783 0.979913C6.00548 0.706763 6.24036 0.481148 6.52003 0.324609C6.7997 0.168069 7.11483 0.0858315 7.43533 0.0857468H10.6045ZM10.6045 1.33575H7.43533C7.34413 1.33582 7.25406 1.35585 7.17142 1.39443C7.08879 1.43301 7.0156 1.48921 6.95699 1.55908L6.90283 1.63408L5.99199 3.11741C5.93614 3.20852 5.85786 3.28378 5.76464 3.336C5.67141 3.38823 5.56635 3.41569 5.45949 3.41575H3.37616C3.18451 3.41564 2.99471 3.45331 2.81763 3.5266C2.64055 3.59989 2.47965 3.70736 2.34413 3.84288C2.20861 3.9784 2.10113 4.1393 2.02784 4.31639C1.95455 4.49347 1.91688 4.68326 1.91699 4.87491V12.7916C1.91699 13.5966 2.57033 14.2499 3.37533 14.2499H14.6253C15.0121 14.2499 15.383 14.0963 15.6565 13.8228C15.93 13.5493 16.0837 13.1784 16.0837 12.7916V4.87491C16.0837 4.48814 15.93 4.11721 15.6565 3.84372C15.383 3.57023 15.0121 3.41658 14.6253 3.41658H12.542C12.433 3.41664 12.326 3.38821 12.2314 3.33413C12.1368 3.28004 12.058 3.20218 12.0028 3.10825L11.1428 1.64408C11.0877 1.55027 11.009 1.47248 10.9146 1.4184C10.8202 1.36433 10.7133 1.33583 10.6045 1.33575ZM9.00033 4.66658C9.99489 4.66658 10.9487 5.06167 11.652 5.76493C12.3552 6.46819 12.7503 7.42202 12.7503 8.41658C12.7503 9.41114 12.3552 10.365 11.652 11.0682C10.9487 11.7715 9.99489 12.1666 9.00033 12.1666C8.00576 12.1666 7.05194 11.7715 6.34868 11.0682C5.64541 10.365 5.25033 9.41114 5.25033 8.41658C5.25033 7.42202 5.64541 6.46819 6.34868 5.76493C7.05194 5.06167 8.00576 4.66658 9.00033 4.66658ZM9.00033 5.91658C8.67202 5.91658 8.34693 5.98124 8.04362 6.10688C7.7403 6.23252 7.4647 6.41667 7.23256 6.64881C7.00041 6.88096 6.81626 7.15656 6.69063 7.45987C6.56499 7.76319 6.50033 8.08828 6.50033 8.41658C6.50033 8.74489 6.56499 9.06997 6.69063 9.37329C6.81626 9.6766 7.00041 9.9522 7.23256 10.1843C7.4647 10.4165 7.7403 10.6006 8.04362 10.7263C8.34693 10.8519 8.67202 10.9166 9.00033 10.9166C9.66337 10.9166 10.2993 10.6532 10.7681 10.1843C11.2369 9.71551 11.5003 9.07962 11.5003 8.41658C11.5003 7.75354 11.2369 7.11765 10.7681 6.64881C10.2993 6.17997 9.66337 5.91658 9.00033 5.91658Z" fill="#1A3164"/>
</svg>
