<svg width="24" height="24" viewBox="0 0 24 24" fill="none" xmlns="http://www.w3.org/2000/svg">
<path d="M12 7C12.1989 7 12.3897 7.07902 12.5303 7.21967C12.671 7.36032 12.75 7.55109 12.75 7.75V11.25H16.25C16.4489 11.25 16.6397 11.329 16.7803 11.4697C16.921 11.6103 17 11.8011 17 12C17 12.1989 16.921 12.3897 16.7803 12.5303C16.6397 12.671 16.4489 12.75 16.25 12.75H12.75V16.25C12.75 16.4489 12.671 16.6397 12.5303 16.7803C12.3897 16.921 12.1989 17 12 17C11.8011 17 11.6103 16.921 11.4697 16.7803C11.329 16.6397 11.25 16.4489 11.25 16.25V12.75H7.75C7.55109 12.75 7.36032 12.671 7.21967 12.5303C7.07902 12.3897 7 12.1989 7 12C7 11.8011 7.07902 11.6103 7.21967 11.4697C7.36032 11.329 7.55109 11.25 7.75 11.25H11.25V7.75C11.25 7.55109 11.329 7.36032 11.4697 7.21967C11.6103 7.07902 11.8011 7 12 7Z" fill="white"/>
<path d="M3 6.25C3 5.38805 3.34241 4.5614 3.9519 3.9519C4.5614 3.34241 5.38805 3 6.25 3H17.75C18.612 3 19.4386 3.34241 20.0481 3.9519C20.6576 4.5614 21 5.38805 21 6.25V17.75C21 18.612 20.6576 19.4386 20.0481 20.0481C19.4386 20.6576 18.612 21 17.75 21H6.25C5.38805 21 4.5614 20.6576 3.9519 20.0481C3.34241 19.4386 3 18.612 3 17.75V6.25ZM6.25 4.5C5.78587 4.5 5.34075 4.68437 5.01256 5.01256C4.68437 5.34075 4.5 5.78587 4.5 6.25V17.75C4.5 18.716 5.284 19.5 6.25 19.5H17.75C18.2141 19.5 18.6592 19.3156 18.9874 18.9874C19.3156 18.6592 19.5 18.2141 19.5 17.75V6.25C19.5 5.78587 19.3156 5.34075 18.9874 5.01256C18.6592 4.68437 18.2141 4.5 17.75 4.5H6.25Z" fill="white"/>
</svg>
