<svg width="24" height="24" viewBox="0 0 24 24" fill="none" xmlns="http://www.w3.org/2000/svg">
<path d="M13 6.25C13 6.51522 12.8946 6.76957 12.7071 6.95711C12.5196 7.14464 12.2652 7.25 12 7.25C11.7348 7.25 11.4804 7.14464 11.2929 6.95711C11.1054 6.76957 11 6.51522 11 6.25C11 5.98478 11.1054 5.73043 11.2929 5.54289C11.4804 5.35536 11.7348 5.25 12 5.25C12.2652 5.25 12.5196 5.35536 12.7071 5.54289C12.8946 5.73043 13 5.98478 13 6.25Z" fill="#404040"/>
<path d="M13.032 2.32496C12.7324 2.10618 12.371 1.98828 12 1.98828C11.629 1.98828 11.2676 2.10618 10.968 2.32496L3.547 7.73996C2.569 8.45296 3.074 9.99996 4.283 9.99996H4.5V15.8C4.04844 16.0304 3.66937 16.3812 3.40466 16.8135C3.13995 17.2459 2.99991 17.743 3 18.25V19.75C3 20.163 3.336 20.5 3.75 20.5H20.25C20.4489 20.5 20.6397 20.4209 20.7803 20.2803C20.921 20.1396 21 19.9489 21 19.75V18.25C21.0001 17.743 20.8601 17.2459 20.5953 16.8135C20.3306 16.3812 19.9516 16.0304 19.5 15.8V9.99996H19.717C20.927 9.99996 21.43 8.45296 20.453 7.73996L13.032 2.32396V2.32496ZM11.852 3.53596C11.8948 3.50467 11.9465 3.48781 11.9995 3.48781C12.0525 3.48781 12.1042 3.50467 12.147 3.53596L18.95 8.49996H5.05L11.852 3.53596ZM18 9.99996V15.5H16V9.99996H18ZM14.5 9.99996V15.5H12.75V9.99996H14.5ZM11.25 9.99996V15.5H9.5V9.99996H11.25ZM5.75 17H18.25C18.94 17 19.5 17.56 19.5 18.25V19H4.5V18.25C4.5 17.56 5.06 17 5.75 17ZM6 15.5V9.99996H8V15.5H6Z" fill="#404040"/>
</svg>
