<svg width="19" height="19" viewBox="0 0 19 19" fill="none" xmlns="http://www.w3.org/2000/svg">
<path d="M7.62487 0.75C8.99496 0.749829 10.3371 1.13789 11.4957 1.86922C12.6542 2.60054 13.5819 3.64519 14.1711 4.88212C14.7603 6.11905 14.987 7.49762 14.8248 8.85808C14.6626 10.2186 14.1183 11.5052 13.2549 12.569L18.1549 17.469C18.2894 17.6027 18.3683 17.7823 18.3757 17.9718C18.3831 18.1613 18.3184 18.3466 18.1947 18.4903C18.071 18.6341 17.8975 18.7256 17.709 18.7465C17.5205 18.7674 17.3311 18.7161 17.1789 18.603L17.0949 18.53L12.1939 13.63C11.2927 14.3611 10.2293 14.8653 9.09289 15.1C7.95648 15.3348 6.78032 15.2934 5.66324 14.9793C4.54616 14.6651 3.52081 14.0874 2.67336 13.2947C1.82591 12.502 1.18111 11.5175 0.793156 10.4238C0.405203 9.33021 0.285431 8.15943 0.443904 7.00989C0.602378 5.86035 1.03447 4.76565 1.70386 3.81778C2.37325 2.8699 3.26039 2.09655 4.29071 1.56272C5.32104 1.02889 6.46446 0.750178 7.62487 0.75ZM7.62487 2.25C6.86976 2.25 6.12206 2.39873 5.42444 2.68769C4.72681 2.97666 4.09294 3.4002 3.559 3.93414C3.02506 4.46807 2.60152 5.10195 2.31256 5.79957C2.02359 6.49719 1.87487 7.2449 1.87487 8C1.87487 8.7551 2.02359 9.50281 2.31256 10.2004C2.60152 10.8981 3.02506 11.5319 3.559 12.0659C4.09294 12.5998 4.72681 13.0233 5.42444 13.3123C6.12206 13.6013 6.86976 13.75 7.62487 13.75C9.14986 13.75 10.6124 13.1442 11.6907 12.0659C12.7691 10.9875 13.3749 9.52499 13.3749 8C13.3749 6.47501 12.7691 5.01247 11.6907 3.93414C10.6124 2.8558 9.14986 2.25 7.62487 2.25Z" fill="#676D75"/>
</svg>
