<svg width="152" height="260" viewBox="0 0 152 260" fill="none" xmlns="http://www.w3.org/2000/svg">
<path d="M11.9521 61.7358H13.3796V22.6322C13.3796 19.6601 13.965 16.7171 15.1023 13.9712C16.2397 11.2254 17.9068 8.73041 20.0084 6.62882C22.1099 4.52723 24.6049 2.86015 27.3507 1.72278C30.0966 0.585406 33.0396 2.2771e-06 36.0117 0H118.858C121.83 -6.07209e-06 124.773 0.585388 127.519 1.72275C130.265 2.86012 132.76 4.52719 134.862 6.62877C136.963 8.73036 138.63 11.2253 139.768 13.9712C140.905 16.717 141.49 19.66 141.49 22.6321V237.158C141.49 240.13 140.905 243.073 139.768 245.819C138.63 248.565 136.963 251.06 134.862 253.161C132.76 255.263 130.265 256.93 127.519 258.067C124.773 259.205 121.83 259.79 118.858 259.79H36.0118C30.0094 259.79 24.2528 257.406 20.0084 253.161C15.7641 248.917 13.3796 243.161 13.3796 237.158V89.5705H11.9521V61.7358Z" fill="#3F3D56"/>
<path d="M35.0977 5.88811H45.9119C45.4146 7.10737 45.2248 8.43022 45.3592 9.74013C45.4935 11.05 45.948 12.3068 46.6825 13.3997C47.417 14.4926 48.4089 15.3881 49.571 16.0073C50.7331 16.6266 52.0297 16.9505 53.3465 16.9506H100.808C102.125 16.9505 103.422 16.6266 104.584 16.0074C105.746 15.3881 106.738 14.4926 107.472 13.3997C108.207 12.3068 108.661 11.05 108.796 9.74013C108.93 8.43021 108.74 7.10735 108.243 5.88809H118.343C122.826 5.88809 127.125 7.66876 130.294 10.8384C133.464 14.008 135.245 18.307 135.245 22.7895V237.001C135.245 239.22 134.807 241.418 133.958 243.469C133.109 245.519 131.864 247.382 130.294 248.952C128.725 250.521 126.862 251.766 124.811 252.616C122.761 253.465 120.563 253.902 118.343 253.902H35.0977C32.8782 253.902 30.6804 253.465 28.6298 252.616C26.5793 251.766 24.7161 250.521 23.1466 248.952C21.5772 247.382 20.3322 245.519 19.4828 243.469C18.6335 241.418 18.1963 239.22 18.1963 237.001V22.7895C18.1963 20.57 18.6335 18.3722 19.4828 16.3216C20.3322 14.2711 21.5772 12.4079 23.1466 10.8384C24.7161 9.26897 26.5793 8.02402 28.6298 7.17464C30.6804 6.32527 32.8782 5.88811 35.0977 5.88811Z" fill="white"/>
<path d="M94.5561 65.8995H58.8857V74.507H94.5561V65.8995Z" fill="#1A3164"/>
<path d="M96.2542 102.886H57.1875V111.493H96.2542V102.886Z" fill="#E5E5E5"/>
<path d="M120.317 121.376H33.124V129.984H120.317V121.376Z" fill="#E5E5E5"/>
<path d="M120.317 139.866H33.124V148.474H120.317V139.866Z" fill="#E5E5E5"/>
<path d="M76.7655 222.757C90.5649 222.757 101.752 211.571 101.752 197.771C101.752 183.972 90.5649 172.785 76.7655 172.785C62.966 172.785 51.7793 183.972 51.7793 197.771C51.7793 211.571 62.966 222.757 76.7655 222.757Z" fill="#1A3164"/>
<path d="M74.3842 208.319L66.9062 198.703L71.255 195.32L74.7957 199.873L86.7582 187.245L90.7584 191.035L74.3842 208.319Z" fill="white"/>
</svg>
