<svg width="24" height="24" viewBox="0 0 24 24" fill="none" xmlns="http://www.w3.org/2000/svg">
<path d="M18.5 20C18.5 20.1326 18.4473 20.2598 18.3536 20.3536C18.2598 20.4473 18.1326 20.5 18 20.5H6C5.86739 20.5 5.74021 20.4473 5.64645 20.3536C5.55268 20.2598 5.5 20.1326 5.5 20V4C5.5 3.86739 5.55268 3.74021 5.64645 3.64645C5.74021 3.55268 5.86739 3.5 6 3.5H12V8C12 8.53043 12.2107 9.03914 12.5858 9.41421C12.9609 9.78929 13.4696 10 14 10H18.5V20ZM13.5 4.621L17.378 8.5H14C13.8674 8.5 13.7402 8.44732 13.6464 8.35355C13.5527 8.25979 13.5 8.13261 13.5 8V4.621ZM19.414 8.414L13.585 2.586C13.559 2.56 13.527 2.54 13.5 2.516C13.4312 2.45107 13.358 2.39093 13.281 2.336C13.241 2.309 13.195 2.291 13.153 2.268C13.082 2.228 13.012 2.184 12.937 2.152C12.7379 2.07246 12.5271 2.02585 12.313 2.014C12.266 2.011 12.22 2 12.172 2H6C5.46957 2 4.96086 2.21071 4.58579 2.58579C4.21071 2.96086 4 3.46957 4 4V20C4 20.5304 4.21071 21.0391 4.58579 21.4142C4.96086 21.7893 5.46957 22 6 22H18C18.5304 22 19.0391 21.7893 19.4142 21.4142C19.7893 21.0391 20 20.5304 20 20V9.828C19.9999 9.29761 19.7891 8.78899 19.414 8.414Z" fill="#404040"/>
</svg>
