<svg width="20" height="20" viewBox="0 0 20 20" fill="none" xmlns="http://www.w3.org/2000/svg">
<path d="M18.2776 1.72233C18.8927 2.33742 19.2382 3.17165 19.2382 4.0415C19.2382 4.91135 18.8927 5.74558 18.2776 6.36067L7.30692 17.3332C7.05314 17.5871 6.73748 17.7703 6.39117 17.8648L1.7015 19.1436C1.58462 19.1753 1.46143 19.1756 1.34441 19.1444C1.22738 19.1132 1.12068 19.0516 1.03508 18.9659C0.949494 18.8803 0.888056 18.7735 0.856989 18.6564C0.825922 18.5394 0.826328 18.4162 0.858166 18.2993L2.13692 13.6097C2.23142 13.2633 2.41469 12.9477 2.66858 12.6939L13.6392 1.72233C14.2543 1.10726 15.0886 0.761719 15.9584 0.761719C16.8283 0.761719 17.6625 1.10726 18.2776 1.72233ZM12.7501 4.55483L3.64025 13.6665C3.55573 13.7511 3.49475 13.8563 3.46333 13.9718L2.50083 17.5009L6.03 16.5384C6.14494 16.5062 6.24951 16.4446 6.33342 16.3597L15.4451 7.24983L12.7501 4.55483ZM14.6109 2.694L13.7217 3.58317L16.4167 6.27817L17.3059 5.389C17.6574 5.03039 17.8531 4.54758 17.8505 4.04549C17.848 3.54339 17.6474 3.06258 17.2924 2.70754C16.9373 2.3525 16.4565 2.15192 15.9544 2.14939C15.4523 2.14685 14.9695 2.34257 14.6109 2.694Z" fill="white"/>
</svg>
