<svg width="25" height="24" viewBox="0 0 25 24" fill="none" xmlns="http://www.w3.org/2000/svg">
<path d="M22.4027 13.202L22.2117 14.018C22.0589 14.6681 21.6748 15.2405 21.1311 15.6282C20.5873 16.0159 19.9211 16.1925 19.2567 16.125L17.5017 15.947C16.9304 15.8891 16.3916 15.6538 15.9608 15.2741C15.53 14.8944 15.2289 14.3895 15.0997 13.83L14.7107 12.144C14.7032 12.1116 14.6894 12.0811 14.67 12.0541C14.6505 12.0272 14.626 12.0044 14.5977 11.987C14.2767 11.79 13.5637 11.667 12.4997 11.667C11.7137 11.667 11.1137 11.734 10.7137 11.856C10.5737 11.899 10.4757 11.941 10.4127 11.972L10.3227 12.02L10.3077 12.06L9.89865 13.83C9.76977 14.3892 9.46916 14.8941 9.03896 15.2739C8.60876 15.6537 8.07052 15.8894 7.49965 15.948L5.75365 16.125C5.09106 16.1927 4.4264 16.0177 3.88311 15.6324C3.33983 15.2471 2.95484 14.6777 2.79965 14.03L2.60365 13.213C2.44739 12.559 2.46983 11.8751 2.66863 11.2327C2.86744 10.5904 3.23528 10.0134 3.73365 9.562C5.63365 7.839 8.56365 7 12.4997 7C16.4427 7 19.3747 7.842 21.2757 9.57C21.7418 9.99412 22.0936 10.5289 22.2984 11.1249C22.5032 11.7209 22.5546 12.3589 22.4477 12.98L22.4027 13.202ZM20.9767 12.688C21.0335 12.3205 20.9984 11.9447 20.8745 11.5941C20.7506 11.2435 20.5418 10.9291 20.2667 10.679C18.6837 9.241 16.1017 8.5 12.4997 8.5C8.90165 8.5 6.32265 9.239 4.73965 10.672C4.44091 10.9429 4.22046 11.2891 4.10136 11.6743C3.98226 12.0596 3.96889 12.4698 4.06265 12.862L4.25865 13.68C4.32903 13.9744 4.50385 14.2333 4.75066 14.4086C4.99747 14.5838 5.29949 14.6636 5.60065 14.633L7.34665 14.455C7.60596 14.4283 7.85044 14.3213 8.04589 14.1488C8.24133 13.9763 8.37796 13.747 8.43665 13.493L8.85965 11.673L8.90265 11.537C9.27865 10.539 10.4937 10.167 12.4997 10.167C13.8177 10.167 14.7647 10.331 15.3797 10.707C15.7807 10.952 16.0667 11.349 16.1727 11.807L16.5617 13.492C16.6817 14.014 17.1217 14.401 17.6537 14.455L19.4077 14.633C19.7097 14.6636 20.0125 14.5833 20.2596 14.407C20.5068 14.2307 20.6813 13.9705 20.7507 13.675L20.9427 12.859L20.9767 12.688Z" fill="white"/>
</svg>
