<svg width="18" height="18" viewBox="0 0 18 18" fill="none" xmlns="http://www.w3.org/2000/svg">
<path d="M9.61492 4.18499L8.99992 4.80149L8.38192 4.18349C7.62586 3.42752 6.60045 3.00286 5.53128 3.00293C4.46212 3.003 3.43677 3.4278 2.6808 4.18386C1.92483 4.93993 1.50017 5.96534 1.50024 7.0345C1.50031 8.10367 1.92511 9.12902 2.68117 9.88499L8.60242 15.8062C8.70789 15.9116 8.85086 15.9707 8.99992 15.9707C9.14899 15.9707 9.29195 15.9116 9.39742 15.8062L15.3239 9.88349C16.0791 9.12736 16.5032 8.10236 16.5031 7.03371C16.5029 5.96506 16.0785 4.94017 15.3232 4.18424C14.9485 3.80927 14.5035 3.51181 14.0138 3.30887C13.5241 3.10592 12.9992 3.00146 12.469 3.00146C11.9389 3.00146 11.414 3.10592 10.9243 3.30887C10.4346 3.51181 9.98964 3.81002 9.61492 4.18499ZM14.5259 9.08999L8.99992 14.6137L3.47617 9.08999C3.20395 8.82064 2.98764 8.50015 2.83967 8.14693C2.69171 7.79372 2.61502 7.41474 2.614 7.03179C2.61298 6.64883 2.68766 6.26945 2.83374 5.91545C2.97982 5.56145 3.19442 5.23982 3.46521 4.96903C3.736 4.69824 4.05764 4.48363 4.41164 4.33755C4.76564 4.19147 5.14502 4.1168 5.52797 4.11782C5.91093 4.11883 6.2899 4.19553 6.64312 4.34349C6.99634 4.49145 7.31683 4.70776 7.58617 4.97999L8.60467 5.99774C8.65766 6.05079 8.72073 6.09271 8.79015 6.12104C8.85958 6.14937 8.93397 6.16353 9.00894 6.16269C9.08392 6.16185 9.15798 6.14603 9.22675 6.11616C9.29553 6.08628 9.35763 6.04296 9.40942 5.98874L10.4099 4.97999C10.9614 4.46667 11.6905 4.18725 12.4438 4.2005C13.1971 4.21376 13.9159 4.51865 14.449 5.05106C14.982 5.58346 15.2878 6.30186 15.3021 7.05514C15.3163 7.80842 15.0385 8.53785 14.5259 9.08999Z" fill="white"/>
</svg>
