<svg width="25" height="24" viewBox="0 0 25 24" fill="none" xmlns="http://www.w3.org/2000/svg">
<path d="M10.675 2.53198C11.0808 2.19 11.5943 2.00244 12.125 2.00244C12.6557 2.00244 13.1692 2.19 13.575 2.53198L20.325 8.22398C20.832 8.65198 21.125 9.28098 21.125 9.94398V19.747C21.125 20.2111 20.9406 20.6562 20.6124 20.9844C20.2842 21.3126 19.8391 21.497 19.375 21.497H15.875C15.4109 21.497 14.9658 21.3126 14.6376 20.9844C14.3094 20.6562 14.125 20.2111 14.125 19.747V14.247C14.125 14.1807 14.0987 14.1171 14.0518 14.0702C14.0049 14.0233 13.9413 13.997 13.875 13.997H10.375C10.3087 13.997 10.2451 14.0233 10.1982 14.0702C10.1513 14.1171 10.125 14.1807 10.125 14.247V19.747C10.125 20.2111 9.94063 20.6562 9.61244 20.9844C9.28425 21.3126 8.83913 21.497 8.375 21.497H4.875C4.64519 21.497 4.41762 21.4517 4.2053 21.3638C3.99298 21.2758 3.80007 21.1469 3.63756 20.9844C3.47506 20.8219 3.34616 20.629 3.25821 20.4167C3.17027 20.2044 3.125 19.9768 3.125 19.747V9.94398C3.125 9.28098 3.418 8.65198 3.925 8.22398L10.675 2.53198ZM12.608 3.67898C12.4728 3.56516 12.3017 3.50275 12.125 3.50275C11.9483 3.50275 11.7772 3.56516 11.642 3.67898L4.892 9.36998C4.80847 9.44029 4.7413 9.528 4.69518 9.62697C4.64906 9.72594 4.62511 9.83379 4.625 9.94298V19.746C4.625 19.884 4.737 19.996 4.875 19.996H8.375C8.4413 19.996 8.50489 19.9696 8.55178 19.9228C8.59866 19.8759 8.625 19.8123 8.625 19.746V14.246C8.625 13.279 9.409 12.496 10.375 12.496H13.875C14.841 12.496 15.625 13.279 15.625 14.246V19.746C15.625 19.884 15.737 19.996 15.875 19.996H19.375C19.4413 19.996 19.5049 19.9696 19.5518 19.9228C19.5987 19.8759 19.625 19.8123 19.625 19.746V9.94398C19.6249 9.83479 19.6009 9.72694 19.5548 9.62797C19.5087 9.529 19.4415 9.44129 19.358 9.37098L12.608 3.67898Z" fill="#676D75"/>
</svg>
