<svg width="24" height="24" viewBox="0 0 24 24" fill="none" xmlns="http://www.w3.org/2000/svg">
<path d="M17.0001 2.49805C17.5834 2.49799 18.1576 2.64366 18.6703 2.92183C19.1831 3.2 19.6182 3.60185 19.9363 4.09089C20.2543 4.57994 20.4451 5.14068 20.4914 5.7222C20.5377 6.30371 20.438 6.88758 20.2013 7.42077C19.9646 7.95396 19.5985 8.41959 19.1362 8.77537C18.6739 9.13114 18.1301 9.36579 17.554 9.45801C16.978 9.55023 16.3881 9.4971 15.8378 9.30343C15.2875 9.10977 14.7944 8.78171 14.4031 8.34905L9.84508 10.953C10.0586 11.6344 10.0586 12.3647 9.84508 13.046L14.4021 15.652C14.9815 15.0118 15.777 14.6082 16.6358 14.5188C17.4946 14.4293 18.3562 14.6603 19.0552 15.1674C19.7541 15.6744 20.241 16.4218 20.4224 17.266C20.6039 18.1102 20.467 18.9917 20.0382 19.7412C19.6094 20.4906 18.9188 21.0552 18.099 21.3266C17.2793 21.5979 16.3882 21.5568 15.5969 21.2112C14.8056 20.8655 14.1699 20.2398 13.8119 19.454C13.4538 18.6683 13.3987 17.778 13.6571 16.954L9.10008 14.347C8.62545 14.8719 8.00297 15.2406 7.31465 15.4046C6.62633 15.5687 5.90446 15.5204 5.24414 15.2661C4.58382 15.0118 4.01602 14.5634 3.61555 13.98C3.21509 13.3966 3.00073 12.7056 3.00073 11.998C3.00073 11.2904 3.21509 10.5994 3.61555 10.0161C4.01602 9.4327 4.58382 8.98433 5.24414 8.73003C5.90446 8.47572 6.62633 8.42741 7.31465 8.59147C8.00297 8.75552 8.62545 9.12424 9.10008 9.64905L13.6571 7.04505C13.4931 6.52068 13.4549 5.96509 13.5454 5.42319C13.6359 4.8813 13.8526 4.36829 14.178 3.92565C14.5035 3.48301 14.9285 3.12314 15.4187 2.87514C15.909 2.62714 16.4507 2.49796 17.0001 2.49805ZM17.0001 15.998C16.4691 15.998 15.9599 16.209 15.5844 16.5844C15.209 16.9599 14.9981 17.4691 14.9981 18C14.9981 18.531 15.209 19.0402 15.5844 19.4157C15.9599 19.7911 16.4691 20.002 17.0001 20.002C17.531 20.002 18.0403 19.7911 18.4157 19.4157C18.7912 19.0402 19.0021 18.531 19.0021 18C19.0021 17.4691 18.7912 16.9599 18.4157 16.5844C18.0403 16.209 17.531 15.998 17.0001 15.998ZM6.50208 9.99805C5.97111 9.99805 5.4619 10.209 5.08645 10.5844C4.711 10.9599 4.50008 11.4691 4.50008 12C4.50008 12.531 4.711 13.0402 5.08645 13.4157C5.4619 13.7911 5.97111 14.002 6.50208 14.002C7.03304 14.002 7.54226 13.7911 7.91771 13.4157C8.29315 13.0402 8.50408 12.531 8.50408 12C8.50408 11.4691 8.29315 10.9599 7.91771 10.5844C7.54226 10.209 7.03304 9.99805 6.50208 9.99805ZM17.0001 3.99805C16.4691 3.99805 15.9599 4.20897 15.5844 4.58442C15.209 4.95987 14.9981 5.46908 14.9981 6.00005C14.9981 6.53101 15.209 7.04023 15.5844 7.41568C15.9599 7.79112 16.4691 8.00205 17.0001 8.00205C17.531 8.00205 18.0403 7.79112 18.4157 7.41568C18.7912 7.04023 19.0021 6.53101 19.0021 6.00005C19.0021 5.46908 18.7912 4.95987 18.4157 4.58442C18.0403 4.20897 17.531 3.99805 17.0001 3.99805Z" fill="#404040"/>
</svg>
