<svg width="16" height="13" viewBox="0 0 16 13" fill="none" xmlns="http://www.w3.org/2000/svg">
<path d="M8.61492 1.18499L7.99992 1.80149L7.38192 1.18349C6.62586 0.427522 5.60045 0.00286401 4.53128 0.00293434C3.46212 0.00300466 2.43677 0.427797 1.6808 1.18386C0.924832 1.93993 0.500174 2.96534 0.500244 4.0345C0.500314 5.10367 0.925108 6.12902 1.68117 6.88499L7.60242 12.8062C7.70789 12.9116 7.85086 12.9707 7.99992 12.9707C8.14899 12.9707 8.29195 12.9116 8.39742 12.8062L14.3239 6.88349C15.0791 6.12736 15.5032 5.10236 15.5031 4.03371C15.5029 2.96506 15.0785 1.94017 14.3232 1.18424C13.9485 0.80927 13.5035 0.511813 13.0138 0.308868C12.5241 0.105922 11.9992 0.00146484 11.469 0.00146484C10.9389 0.00146484 10.414 0.105922 9.9243 0.308868C9.43458 0.511813 8.98964 0.81002 8.61492 1.18499Z" fill="#32CD32"/>
</svg>
