<svg width="24" height="24" viewBox="0 0 24 24" fill="none" xmlns="http://www.w3.org/2000/svg">
<path d="M8.502 11.5C8.76775 11.5 9.02261 11.6056 9.21052 11.7935C9.39843 11.9814 9.504 12.2363 9.504 12.502C9.504 12.7677 9.39843 13.0226 9.21052 13.2105C9.02261 13.3984 8.76775 13.504 8.502 13.504C8.23625 13.504 7.98139 13.3984 7.79348 13.2105C7.60557 13.0226 7.5 12.7677 7.5 12.502C7.5 12.2363 7.60557 11.9814 7.79348 11.7935C7.98139 11.6056 8.23625 11.5 8.502 11.5Z" fill="#404040"/>
<path d="M12 4.35448V11.0055L19.442 11.0045L17.72 9.28048C17.593 9.15349 17.5158 8.98514 17.5024 8.80603C17.489 8.62692 17.5403 8.44895 17.647 8.30448L17.72 8.22048C17.847 8.09346 18.0153 8.01623 18.1945 8.00284C18.3736 7.98944 18.5515 8.04077 18.696 8.14748L18.78 8.22048L21.777 11.2175C21.904 11.3445 21.9812 11.5128 21.9946 11.6919C22.008 11.871 21.9567 12.049 21.85 12.1935L21.777 12.2775L18.781 15.2815C18.6472 15.4148 18.468 15.4926 18.2792 15.4996C18.0904 15.5065 17.906 15.4419 17.7628 15.3188C17.6196 15.1956 17.5281 15.023 17.5066 14.8353C17.4852 14.6476 17.5353 14.4588 17.647 14.3065L17.719 14.2215L19.432 12.5045L12.001 12.5055L12 19.2505C12.0001 19.36 11.9761 19.4682 11.9299 19.5675C11.8836 19.6668 11.8162 19.7547 11.7323 19.8252C11.6484 19.8956 11.5502 19.9468 11.4444 19.9752C11.3386 20.0036 11.2279 20.0085 11.12 19.9895L2.62 18.4875C2.44658 18.457 2.28943 18.3664 2.17607 18.2316C2.06272 18.0969 2.00039 17.9266 2 17.7505V5.75048C2 5.57272 2.06314 5.40074 2.17816 5.2652C2.29318 5.12967 2.45261 5.0394 2.628 5.01048L11.128 3.61448C11.2354 3.59678 11.3453 3.60265 11.4502 3.63169C11.555 3.66073 11.6523 3.71224 11.7353 3.78265C11.8182 3.85306 11.8849 3.94067 11.9306 4.03942C11.9763 4.13816 12 4.24567 12 4.35448ZM10.5 5.23748L3.5 6.38748V17.1205L10.5 18.3565V5.23748Z" fill="#404040"/>
<path d="M13 18.501H13.765L13.867 18.495C14.0469 18.4703 14.2117 18.3812 14.3309 18.2442C14.4501 18.1072 14.5155 17.9316 14.515 17.75L14.508 13.5H13V18.501ZM13.002 10L13 8.725V5H13.745C13.9261 4.99997 14.1011 5.06547 14.2376 5.18439C14.3742 5.30331 14.4631 5.46763 14.488 5.647L14.495 5.749L14.502 10H13.002Z" fill="#404040"/>
</svg>
