<svg width="285" height="108" viewBox="0 0 285 108" fill="none" xmlns="http://www.w3.org/2000/svg">
<path d="M48.9899 95.8891C42.4541 95.8891 36.4458 94.8532 30.9459 92.7625C25.4461 90.6718 20.6809 87.7147 16.669 83.8535C12.6571 79.9923 9.53052 75.4719 7.28916 70.2923C5.04779 65.1127 3.93652 59.4057 3.93652 53.1901C3.93652 46.9745 5.04779 41.2864 7.28916 36.0879C9.53052 30.8894 12.6948 26.369 16.782 22.5267C20.8692 18.6655 25.6721 15.7084 31.172 13.6177C36.6718 11.527 42.7367 10.4911 49.3289 10.4911C56.6369 10.4911 63.2292 11.7154 69.0869 14.1451C74.9445 16.5748 79.8793 20.1158 83.8912 24.768L71.7426 36.0879C68.6725 32.8671 65.3764 30.4939 61.8354 28.9494C58.2944 27.4238 54.4144 26.6516 50.1577 26.6516C46.2211 26.6516 42.6048 27.2919 39.3087 28.5916C36.0126 29.8912 33.1496 31.7182 30.7576 34.0725C28.3655 36.4269 26.5197 39.2145 25.2201 42.4541C23.9205 45.6749 23.2801 49.2536 23.2801 53.1901C23.2801 56.9571 23.9205 60.4792 25.2201 63.7377C26.5197 66.9962 28.3655 69.8214 30.7576 72.1758C33.1496 74.5302 35.9937 76.376 39.2522 77.7133C42.5106 79.0506 46.1081 79.7286 50.0446 79.7286C53.8117 79.7286 57.5033 79.1071 61.0631 77.8451C64.6418 76.5832 68.1263 74.5113 71.4977 71.5919L82.3467 85.398C77.7886 88.8636 72.5525 91.4817 66.6571 93.2522C60.7806 95.0038 54.8853 95.8891 48.9899 95.8891ZM64.9055 82.9118V51.8905H82.3655V85.3792L64.9055 82.9118Z" fill="white"/>
<path d="M99.5808 95.8891V6.96896H117.983V95.8891H99.5808Z" fill="white"/>
<path d="M209.389 95.8326V6.96896H227.791V95.8326H209.389ZM224.608 81.4991L225.078 58.9724L254.687 31.0213H276.63L248.208 59.9142L238.659 67.8061L224.608 81.4991ZM257.87 95.8326L235.231 67.8249L246.795 53.548L280.171 95.8326H257.87Z" fill="white"/>
<path d="M165.786 28.1395C145.745 28.1395 129.51 44.3753 129.51 64.4158C129.51 71.2905 131.468 77.7133 134.783 83.1943L129.698 98.0739C129.698 98.0739 128.059 102.236 132.241 100.673C135.254 99.5431 142.882 96.812 146.951 95.3617C152.451 98.7143 158.873 100.673 165.767 100.673C185.807 100.673 202.043 84.4374 202.043 64.3969C202.062 44.3753 185.826 28.1395 165.786 28.1395Z" fill="white"/>
<path d="M182.737 53.9435L174.243 59.6128V55.0171C174.243 53.9812 173.395 53.1336 172.359 53.1336H147.61C146.574 53.1336 145.727 53.9812 145.727 55.0171V73.7956C145.727 74.8315 146.574 75.6791 147.61 75.6791H172.34C173.376 75.6791 174.224 74.8315 174.224 73.7956V69.1245L182.436 74.8692C185.299 76.1688 185.826 74.9634 185.826 71.4789V57.0513C185.845 54.9041 185.28 52.7946 182.737 53.9435Z" fill="#662D91"/>
</svg>
