<svg width="8" height="14" viewBox="0 0 8 14" fill="none" xmlns="http://www.w3.org/2000/svg">
<path d="M6.74395 7L0.80298 0.894621C0.754067 0.845419 0.715398 0.787006 0.689209 0.72276C0.66302 0.658515 0.649832 0.589714 0.650409 0.520339C0.650985 0.450963 0.665314 0.382391 0.692566 0.318589C0.719819 0.254788 0.759454 0.197025 0.809178 0.148643C0.858902 0.10026 0.917726 0.0622194 0.982249 0.0367214C1.04677 0.0112234 1.11571 -0.00122556 1.18508 9.50761e-05C1.25444 0.00141571 1.32286 0.0164797 1.38636 0.0444152C1.44987 0.0723508 1.5072 0.112603 1.55505 0.162843L7.85142 6.63411C7.94672 6.73206 8.00004 6.86334 8.00004 7C8.00004 7.13666 7.94672 7.26793 7.85142 7.36589L1.55505 13.8372C1.5072 13.8874 1.44987 13.9276 1.38636 13.9556C1.32286 13.9835 1.25444 13.9986 1.18508 13.9999C1.11571 14.0012 1.04677 13.9888 0.982249 13.9633C0.917726 13.9378 0.858902 13.8997 0.809178 13.8514C0.759454 13.803 0.719819 13.7452 0.692566 13.6814C0.665314 13.6176 0.650985 13.549 0.650409 13.4797C0.649832 13.4103 0.66302 13.3415 0.689209 13.2772C0.715398 13.213 0.754067 13.1546 0.80298 13.1054L6.74395 7Z" fill="#8C8C8C"/>
</svg>
