<svg width="21" height="15" viewBox="0 0 21 15" fill="none" xmlns="http://www.w3.org/2000/svg">
<path d="M1.62482 12.9999H14.1248C14.3148 13 14.4978 13.0722 14.6366 13.2019C14.7755 13.3316 14.8599 13.5092 14.8728 13.6988C14.8858 13.8884 14.8263 14.0758 14.7064 14.2232C14.5865 14.3706 14.4151 14.467 14.2268 14.4929L14.1248 14.4999H1.62482C1.43344 14.5019 1.24856 14.4306 1.10803 14.3007C0.967506 14.1707 0.881967 13.992 0.868931 13.8011C0.855894 13.6101 0.916348 13.4214 1.03791 13.2736C1.15947 13.1258 1.33295 13.03 1.52282 13.0059L1.62482 12.9999ZM1.62482 6.49993H20.1248C20.3148 6.49999 20.4978 6.57217 20.6366 6.7019C20.7755 6.83163 20.8599 7.00923 20.8728 7.19881C20.8858 7.38839 20.8263 7.57582 20.7064 7.72323C20.5865 7.87064 20.4151 7.96703 20.2268 7.99293L20.1248 7.99993H1.62482C1.43479 7.99987 1.25187 7.92769 1.11302 7.79796C0.974173 7.66823 0.889742 7.49063 0.87679 7.30105C0.863838 7.11147 0.923331 6.92404 1.04325 6.77663C1.16317 6.62922 1.33457 6.53283 1.52282 6.50693L1.62482 6.49993ZM1.62482 0.00292969H17.1248C17.3148 0.00298793 17.4978 0.0751745 17.6366 0.204903C17.7755 0.334631 17.8599 0.512228 17.8728 0.70181C17.8858 0.891391 17.8263 1.07882 17.7064 1.22623C17.5865 1.37364 17.4151 1.47003 17.2268 1.49593L17.1248 1.50293H1.62482C1.43479 1.50287 1.25187 1.43069 1.11302 1.30096C0.974173 1.17123 0.889742 0.993632 0.87679 0.80405C0.863838 0.614468 0.923331 0.427038 1.04325 0.279631C1.16317 0.132224 1.33457 0.0358316 1.52282 0.00993013L1.62482 0.00292969Z" fill="#676D75"/>
</svg>
