<svg width="24" height="24" viewBox="0 0 24 24" fill="none" xmlns="http://www.w3.org/2000/svg">
<path d="M11.9999 1.9961C13.9465 1.99354 15.8177 2.74894 17.2169 4.10226C18.6162 5.45557 19.4335 7.30048 19.4959 9.2461L19.4999 9.4961V13.5931L20.8799 16.7491C20.9629 16.9393 20.9973 17.1471 20.9799 17.3539C20.9625 17.5607 20.8939 17.7598 20.7803 17.9335C20.6667 18.1071 20.5116 18.2497 20.3291 18.3485C20.1466 18.4472 19.9424 18.499 19.7349 18.4991L14.9999 18.5021C15.0009 19.2831 14.6974 20.0337 14.1537 20.5944C13.61 21.1551 12.8691 21.4817 12.0885 21.5047C11.3078 21.5278 10.5489 21.2455 9.97313 20.7178C9.39732 20.1902 9.04998 19.4588 9.00492 18.6791L8.99992 18.4991H4.27492C4.06773 18.4989 3.86385 18.4472 3.68157 18.3486C3.4993 18.2501 3.34435 18.1079 3.23064 17.9347C3.11693 17.7615 3.04801 17.5628 3.03008 17.3564C3.01215 17.1499 3.04577 16.9423 3.12792 16.7521L4.49992 13.5941V9.4961C4.49992 5.3411 7.85192 1.9961 11.9999 1.9961ZM13.4999 18.5001L10.4999 18.5021C10.4999 18.8874 10.6481 19.258 10.9138 19.5369C11.1796 19.8159 11.5425 19.982 11.9273 20.0006C12.3122 20.0192 12.6895 19.8891 12.9809 19.6371C13.2724 19.3851 13.4557 19.0306 13.4929 18.6471L13.4989 18.5001H13.4999ZM11.9999 3.4961C8.67992 3.4961 5.99992 6.1701 5.99992 9.4961V13.9061L4.65592 17.0001H19.3529L17.9999 13.9071V9.5091L17.9959 9.2841C17.944 7.72952 17.2891 6.25615 16.17 5.17587C15.0509 4.09558 13.5554 3.49315 11.9999 3.4961Z" fill="#404040"/>
</svg>
