<svg width="18" height="21" viewBox="0 0 18 21" fill="none" xmlns="http://www.w3.org/2000/svg">
<path d="M8.99992 0.995978C10.9465 0.993419 12.8177 1.74882 14.2169 3.10214C15.6162 4.45545 16.4335 6.30036 16.4959 8.24598L16.4999 8.49598V12.593L17.8799 15.749C17.9629 15.9392 17.9973 16.147 17.9799 16.3538C17.9625 16.5605 17.8939 16.7597 17.7803 16.9334C17.6667 17.107 17.5116 17.2496 17.3291 17.3484C17.1466 17.4471 16.9424 17.4989 16.7349 17.499L11.9999 17.502C12.0009 18.283 11.6974 19.0336 11.1537 19.5943C10.61 20.155 9.86911 20.4815 9.08846 20.5046C8.3078 20.5276 7.54893 20.2453 6.97313 19.7177C6.39732 19.1901 6.04998 18.4587 6.00492 17.679L5.99992 17.499H1.27492C1.06773 17.4987 0.863846 17.447 0.681575 17.3485C0.499303 17.25 0.344354 17.1078 0.230641 16.9346C0.116928 16.7614 0.0480127 16.5626 0.0300836 16.3562C0.0121546 16.1498 0.0457733 15.9422 0.127921 15.752L1.49992 12.594V8.49598C1.49992 4.34098 4.85192 0.995978 8.99992 0.995978ZM10.4999 17.5L7.49992 17.502C7.49985 17.8873 7.64806 18.2578 7.91381 18.5368C8.17957 18.8158 8.54249 18.9818 8.92734 19.0005C9.31219 19.0191 9.68946 18.889 9.98093 18.637C10.2724 18.385 10.4557 18.0305 10.4929 17.647L10.4989 17.5H10.4999ZM8.99992 2.49598C5.67992 2.49598 2.99992 5.16998 2.99992 8.49598V12.906L1.65592 16H16.3529L14.9999 12.907V8.50898L14.9959 8.28398C14.944 6.7294 14.2891 5.25603 13.17 4.17575C12.0509 3.09546 10.5554 2.49303 8.99992 2.49598Z" fill="white"/>
</svg>
