<svg width="20" height="20" viewBox="0 0 20 20" fill="none" xmlns="http://www.w3.org/2000/svg">
<path d="M11.4567 7.49663C11.7326 7.49663 11.9971 7.38705 12.1921 7.19202C12.3872 6.99698 12.4967 6.73245 12.4967 6.45663C12.4967 6.1808 12.3872 5.91627 12.1921 5.72124C11.9971 5.5262 11.7326 5.41663 11.4567 5.41663C11.1809 5.41663 10.9164 5.5262 10.7214 5.72124C10.5263 5.91627 10.4167 6.1808 10.4167 6.45663C10.4167 6.73245 10.5263 6.99698 10.7214 7.19202C10.9164 7.38705 11.1809 7.49663 11.4567 7.49663Z" fill="#212121"/>
<path d="M5.20833 2.5C4.49004 2.5 3.80116 2.78534 3.29325 3.29325C2.78534 3.80116 2.5 4.49004 2.5 5.20833V12.7083C2.5 13.4266 2.78534 14.1155 3.29325 14.6234C3.80116 15.1313 4.49004 15.4167 5.20833 15.4167H12.7083C13.4266 15.4167 14.1155 15.1313 14.6234 14.6234C15.1313 14.1155 15.4167 13.4266 15.4167 12.7083V5.20833C15.4167 4.49004 15.1313 3.80116 14.6234 3.29325C14.1155 2.78534 13.4266 2.5 12.7083 2.5H5.20833ZM3.75 5.20833C3.75 4.40333 4.40333 3.75 5.20833 3.75H12.7083C13.5133 3.75 14.1667 4.40333 14.1667 5.20833V12.7083C14.1667 12.9008 14.1292 13.085 14.0617 13.2533L10.2392 9.6775C9.89181 9.35259 9.43396 9.17184 8.95833 9.17184C8.48271 9.17184 8.02486 9.35259 7.6775 9.6775L3.855 13.2525C3.78544 13.0795 3.74979 12.8948 3.75 12.7083V5.20833ZM9.385 10.59L13.1392 14.1017C13.0033 14.1433 12.8583 14.1667 12.7083 14.1667H5.20833C5.05833 14.1667 4.91333 14.1442 4.7775 14.1017L8.53083 10.59C8.64663 10.4816 8.79931 10.4213 8.95792 10.4213C9.11652 10.4213 9.2692 10.4816 9.385 10.59Z" fill="#212121"/>
<path d="M7.29163 17.5C6.83664 17.5004 6.38888 17.3861 5.98978 17.1676C5.59067 16.9491 5.2531 16.6335 5.0083 16.25H13.125C13.9538 16.25 14.7486 15.9207 15.3347 15.3347C15.9207 14.7486 16.25 13.9538 16.25 13.125V5.00916C16.6334 5.25402 16.949 5.59159 17.1675 5.99069C17.386 6.38978 17.5003 6.83751 17.5 7.29249V13.1258C17.5 15.5417 15.5416 17.5 13.125 17.5H7.29163Z" fill="#212121"/>
</svg>
