<svg width="44" height="44" viewBox="0 0 44 44" fill="none" xmlns="http://www.w3.org/2000/svg">
<path d="M22.4004 2.39999C16.8775 2.39999 12.4004 6.87715 12.4004 12.4C12.4004 17.9228 16.8775 22.4 22.4004 22.4C27.9232 22.4 32.4004 17.9228 32.4004 12.4C32.4004 6.87715 27.9232 2.39999 22.4004 2.39999ZM10.6503 26.4C8.30365 26.4 6.40041 28.3013 6.40039 30.6489L6.40039 31.4C6.40039 35.1555 8.34206 37.9669 11.3206 39.7802C14.2495 41.5633 18.1865 42.4 22.4004 42.4C26.6143 42.4 30.5513 41.5633 33.4802 39.7802C36.4587 37.9669 38.4004 35.1555 38.4004 31.4L38.4004 30.6487C38.4004 28.3011 36.4971 26.4 34.1506 26.4H10.6503Z" fill="#8C8C8C"/>
</svg>
