<svg width="14" height="18" viewBox="0 0 14 18" fill="none" xmlns="http://www.w3.org/2000/svg">
<path d="M11.795 10.6667C12.0412 10.6666 12.285 10.715 12.5125 10.8091C12.74 10.9033 12.9467 11.0413 13.1208 11.2153C13.2949 11.3894 13.433 11.596 13.5273 11.8235C13.6215 12.0509 13.67 12.2947 13.67 12.5409V13.02C13.67 13.765 13.4033 14.4867 12.9183 15.0517C11.61 16.58 9.62084 17.3342 7 17.3342C4.37834 17.3342 2.39 16.58 1.085 15.0509C0.601991 14.4851 0.336644 13.7656 0.33667 13.0217V12.5409C0.336561 12.2947 0.384956 12.0509 0.479093 11.8234C0.57323 11.5959 0.711262 11.3892 0.885306 11.2151C1.05935 11.041 1.26599 10.9029 1.49343 10.8086C1.72087 10.7144 1.96465 10.6659 2.21084 10.6659H11.795V10.6667ZM11.795 11.9167H2.21084C2.1288 11.9166 2.04755 11.9327 1.97172 11.964C1.8959 11.9953 1.82699 12.0413 1.76895 12.0992C1.7109 12.1572 1.66485 12.226 1.63343 12.3018C1.60201 12.3776 1.58584 12.4588 1.58584 12.5409V13.0217C1.58584 13.4684 1.74584 13.9 2.03584 14.2392C3.08 15.4625 4.71834 16.0842 7 16.0842C9.28167 16.0842 10.9217 15.4625 11.9683 14.2392C12.2592 13.8996 12.4191 13.4672 12.4192 13.02V12.5409C12.4193 12.4588 12.4032 12.3776 12.3719 12.3018C12.3406 12.2259 12.2946 12.157 12.2367 12.099C12.1787 12.0409 12.1098 11.9949 12.0341 11.9635C11.9583 11.932 11.877 11.9159 11.795 11.9159V11.9167ZM7 0.670044C8.10507 0.670044 9.16488 1.10903 9.94628 1.89043C10.7277 2.67183 11.1667 3.73164 11.1667 4.83671C11.1667 5.94178 10.7277 7.00159 9.94628 7.78299C9.16488 8.56439 8.10507 9.00338 7 9.00338C5.89493 9.00338 4.83513 8.56439 4.05372 7.78299C3.27232 7.00159 2.83334 5.94178 2.83334 4.83671C2.83334 3.73164 3.27232 2.67183 4.05372 1.89043C4.83513 1.10903 5.89493 0.670044 7 0.670044ZM7 1.92004C6.61698 1.92004 6.23771 1.99549 5.88384 2.14206C5.52998 2.28864 5.20845 2.50348 4.93761 2.77432C4.66677 3.04515 4.45193 3.36668 4.30535 3.72055C4.15878 4.07442 4.08334 4.45369 4.08334 4.83671C4.08334 5.21973 4.15878 5.599 4.30535 5.95287C4.45193 6.30674 4.66677 6.62827 4.93761 6.89911C5.20845 7.16994 5.52998 7.38478 5.88384 7.53136C6.23771 7.67794 6.61698 7.75338 7 7.75338C7.77355 7.75338 8.51542 7.44609 9.0624 6.89911C9.60938 6.35212 9.91667 5.61026 9.91667 4.83671C9.91667 4.06316 9.60938 3.3213 9.0624 2.77432C8.51542 2.22733 7.77355 1.92004 7 1.92004Z" fill="#404040"/>
</svg>
