<svg width="24" height="24" viewBox="0 0 24 24" fill="none" xmlns="http://www.w3.org/2000/svg">
<path d="M17.7539 13.9999C18.0493 13.9998 18.3419 14.0579 18.6149 14.1708C18.8878 14.2838 19.1359 14.4494 19.3448 14.6583C19.5538 14.8671 19.7195 15.1151 19.8326 15.388C19.9457 15.6609 20.0039 15.9535 20.0039 16.2489V16.8239C20.0039 17.7179 19.6839 18.5839 19.1019 19.2619C17.5319 21.0959 15.1449 22.0009 11.9999 22.0009C8.85391 22.0009 6.46791 21.0959 4.90191 19.2609C4.32229 18.582 4.00388 17.7186 4.00391 16.8259V16.2489C4.00378 15.9535 4.06185 15.6609 4.17481 15.3879C4.28778 15.115 4.45342 14.8669 4.66227 14.658C4.87112 14.449 5.11909 14.2833 5.39202 14.1702C5.66495 14.0571 5.95748 13.9989 6.25291 13.9989H17.7539V13.9999ZM17.7539 15.4999H6.25291C6.15446 15.4998 6.05696 15.5191 5.96597 15.5566C5.87498 15.5942 5.79229 15.6494 5.72264 15.7189C5.65298 15.7885 5.59772 15.8711 5.56002 15.962C5.52231 16.053 5.50291 16.1505 5.50291 16.2489V16.8259C5.50291 17.3619 5.69491 17.8799 6.04291 18.2869C7.29591 19.7549 9.26191 20.5009 11.9999 20.5009C14.7379 20.5009 16.7059 19.7549 17.9619 18.2869C18.3109 17.8793 18.5028 17.3605 18.5029 16.8239V16.2489C18.503 16.1505 18.4838 16.053 18.4462 15.962C18.4086 15.871 18.3534 15.7883 18.2839 15.7186C18.2143 15.649 18.1317 15.5937 18.0408 15.556C17.9498 15.5183 17.8524 15.4989 17.7539 15.4989V15.4999ZM11.9999 2.00391C13.326 2.00391 14.5978 2.53069 15.5354 3.46837C16.4731 4.40605 16.9999 5.67782 16.9999 7.00391C16.9999 8.32999 16.4731 9.60176 15.5354 10.5394C14.5978 11.4771 13.326 12.0039 11.9999 12.0039C10.6738 12.0039 9.40205 11.4771 8.46437 10.5394C7.52669 9.60176 6.99991 8.32999 6.99991 7.00391C6.99991 5.67782 7.52669 4.40605 8.46437 3.46837C9.40205 2.53069 10.6738 2.00391 11.9999 2.00391ZM11.9999 3.50391C11.5403 3.50391 11.0852 3.59444 10.6605 3.77033C10.2359 3.94622 9.85004 4.20403 9.52503 4.52903C9.20003 4.85404 8.94222 5.23987 8.76633 5.66451C8.59044 6.08915 8.49991 6.54428 8.49991 7.00391C8.49991 7.46353 8.59044 7.91866 8.76633 8.3433C8.94222 8.76794 9.20003 9.15378 9.52503 9.47878C9.85004 9.80379 10.2359 10.0616 10.6605 10.2375C11.0852 10.4134 11.5403 10.5039 11.9999 10.5039C12.9282 10.5039 13.8184 10.1352 14.4748 9.47878C15.1312 8.8224 15.4999 7.93216 15.4999 7.00391C15.4999 6.07565 15.1312 5.18541 14.4748 4.52903C13.8184 3.87266 12.9282 3.50391 11.9999 3.50391Z" fill="#404040"/>
</svg>
