<svg width="14" height="15" viewBox="0 0 14 15" fill="none" xmlns="http://www.w3.org/2000/svg">
<path d="M11.2527 2.42209C11.3574 2.31635 11.4986 2.25465 11.6473 2.2496C11.7961 2.24456 11.9411 2.29655 12.0528 2.39494C12.1644 2.49333 12.2343 2.63068 12.248 2.77887C12.2617 2.92706 12.2182 3.07488 12.1265 3.19208L12.0775 3.24692L3.74052 11.5833H6.70852C6.85149 11.5834 6.98947 11.6359 7.09625 11.731C7.20303 11.826 7.27119 11.957 7.28777 12.099L7.29127 12.1667C7.29138 12.3097 7.23891 12.4479 7.14383 12.5548C7.04876 12.6617 6.91771 12.7299 6.77561 12.7465L6.70794 12.75H2.29794L2.24194 12.7442L2.19702 12.7354L2.15211 12.7226L2.11127 12.7074L2.05877 12.6829L2.00686 12.652L1.95377 12.6112L1.97244 12.6269C1.93649 12.5985 1.90399 12.566 1.87561 12.5301L1.84586 12.4893L1.82252 12.4519L1.80386 12.4146L1.78402 12.3668L1.76944 12.3201L1.75544 12.2553L1.75136 12.2198L1.74902 12.1673V7.7905C1.74919 7.64182 1.80612 7.49882 1.90818 7.3907C2.01025 7.28259 2.14975 7.21753 2.29817 7.20882C2.44659 7.2001 2.59274 7.24839 2.70676 7.34382C2.82077 7.43925 2.89405 7.57461 2.91161 7.72225L2.91569 7.7905V10.7585L11.2527 2.42209Z" fill="white"/>
</svg>
