<svg width="14" height="15" viewBox="0 0 14 15" fill="none" xmlns="http://www.w3.org/2000/svg">
<path d="M2.74682 12.5782C2.64209 12.6839 2.50091 12.7456 2.35217 12.7506C2.20343 12.7557 2.05839 12.7037 1.94673 12.6053C1.83508 12.5069 1.76525 12.3696 1.75154 12.2214C1.73783 12.0732 1.78128 11.9254 1.87299 11.8082L1.92199 11.7533L10.259 3.41691L7.29099 3.41691C7.14802 3.41687 7.01005 3.36434 6.90326 3.26927C6.79648 3.17421 6.72832 3.04324 6.71174 2.90124L6.70824 2.83358C6.70813 2.69051 6.7606 2.55239 6.85568 2.44548C6.95076 2.33858 7.0818 2.27034 7.2239 2.25374L7.29157 2.25024L11.7016 2.25024L11.7576 2.25608L11.8025 2.26483L11.8474 2.27766L11.8882 2.29283L11.9407 2.31733L11.9927 2.34824L12.0457 2.38908L12.0271 2.37333C12.063 2.40171 12.0955 2.43421 12.1239 2.47016L12.1537 2.51099L12.177 2.54833L12.1957 2.58566L12.2155 2.63349L12.2301 2.68016L12.2441 2.74491L12.2482 2.78049L12.2505 2.83299V7.20974C12.2503 7.35842 12.1934 7.50143 12.0913 7.60954C11.9893 7.71765 11.8498 7.78271 11.7013 7.79143C11.5529 7.80014 11.4068 7.75185 11.2928 7.65642C11.1787 7.56099 11.1055 7.42563 11.0879 7.27799L11.0838 7.20974V4.24174L2.74682 12.5782Z" fill="white"/>
</svg>
