<svg width="18" height="20" viewBox="0 0 18 20" fill="none" xmlns="http://www.w3.org/2000/svg">
<path d="M13.9998 0.498047C14.5832 0.497989 15.1573 0.643659 15.6701 0.921827C16.1828 1.2 16.618 1.60185 16.936 2.09089C17.254 2.57994 17.4449 3.14068 17.4911 3.7222C17.5374 4.30371 17.4377 4.88758 17.200 5.42077C16.9644 5.95396 16.5983 6.41959 16.136 6.77537C15.6737 7.13114 15.1298 7.36579 14.5538 7.45801C13.9778 7.55023 13.3878 7.4971 12.8376 7.30343C12.2873 7.10977 11.7941 6.78171 11.4028 6.34905L6.84483 8.95305C7.05832 9.63438 7.05832 10.3647 6.84483 11.046L11.4018 13.652C11.9812 13.0118 12.7767 12.6082 13.6356 12.5188C14.4944 12.4293 15.356 12.6603 16.0549 13.1674C16.7538 13.6744 17.2407 14.4218 17.4222 15.266C17.6036 16.1102 17.4668 16.9917 17.038 17.7412C16.6091 18.4906 15.9185 19.0552 15.0988 19.3266C14.279 19.5979 13.388 19.5568 12.5967 19.2112C11.8054 18.8655 11.1697 18.2398 10.8116 17.454C10.4536 16.6683 10.3985 15.778 10.6568 14.954L6.09983 12.347C5.62521 12.8719 5.00273 13.2406 4.31441 13.4046C3.62609 13.5687 2.90422 13.5204 2.2439 13.2661C1.58358 13.0118 1.01578 12.5634 0.615311 11.98C0.214842 11.3966 0.000488281 10.7056 0.000488281 9.99805C0.000488281 9.29045 0.214842 8.59945 0.615311 8.01608C1.01578 7.4327 1.58358 6.98433 2.2439 6.73003C2.90422 6.47572 3.62609 6.42741 4.31441 6.59147C5.00273 6.75552 5.62521 7.12424 6.09983 7.64905L10.6568 5.04505C10.4929 4.52068 10.4546 3.96509 10.5451 3.42319C10.6356 2.8813 10.8523 2.36829 11.1778 1.92565C11.5032 1.48301 11.9282 1.12314 12.4185 0.87514C12.9087 0.627139 13.4504 0.497961 13.9998 0.498047ZM13.9998 13.998C13.4689 13.998 12.9597 14.209 12.5842 14.5844C12.2088 14.9599 11.9978 15.4691 11.9978 16C11.9978 16.531 12.2088 17.0402 12.5842 17.4157C12.9597 17.7911 13.4689 18.002 13.9998 18.002C14.5308 18.002 15.04 17.7911 15.4155 17.4157C15.7909 17.0402 16.0018 16.531 16.0018 16C16.0018 15.4691 15.7909 14.9599 15.4155 14.5844C15.04 14.209 14.5308 13.998 13.9998 13.998ZM3.50183 7.99805C2.97087 7.99805 2.46165 8.20897 2.08621 8.58442C1.71076 8.95987 1.49983 9.46908 1.49983 10C1.49983 10.531 1.71076 11.0402 2.08621 11.4157C2.46165 11.7911 2.97087 12.002 3.50183 12.002C4.0328 12.002 4.54201 11.7911 4.91746 11.4157C5.29291 11.0402 5.50383 10.531 5.50383 10C5.50383 9.46908 5.29291 8.95987 4.91746 8.58442C4.54201 8.20897 4.0328 7.99805 3.50183 7.99805ZM13.9998 1.99805C13.4689 1.99805 12.9597 2.20897 12.5842 2.58442C12.2088 2.95987 11.9978 3.46908 11.9978 4.00005C11.9978 4.53101 12.2088 5.04023 12.5842 5.41568C12.9597 5.79112 13.4689 6.00205 13.9998 6.00205C14.5308 6.00205 15.04 5.79112 15.4155 5.41568C15.7909 5.04023 16.0018 4.53101 16.0018 4.00005C16.0018 3.46908 15.7909 2.95987 15.4155 2.58442C15.04 2.20897 14.5308 1.99805 13.9998 1.99805Z" fill="white"/>
</svg>
