<svg width="32" height="32" viewBox="0 0 32 32" fill="none" xmlns="http://www.w3.org/2000/svg">
<rect width="32" height="32" rx="16" fill="url(#paint0_linear_112_3649)"/>
<path d="M11.7468 21.5782C11.6421 21.6839 11.5009 21.7456 11.3522 21.7506C11.2034 21.7557 11.0584 21.7037 10.9467 21.6053C10.8351 21.5069 10.7652 21.3696 10.7515 21.2214C10.7378 21.0732 10.7813 20.9254 10.873 20.8082L10.922 20.7533L19.259 12.4169L16.291 12.4169C16.148 12.4169 16.01 12.3643 15.9033 12.2693C15.7965 12.1742 15.7283 12.0432 15.7117 11.9012L15.7082 11.8336C15.7081 11.6905 15.7606 11.5524 15.8557 11.4455C15.9508 11.3386 16.0818 11.2703 16.2239 11.2537L16.2916 11.2502L20.7016 11.2502L20.7576 11.2561L20.8025 11.2648L20.8474 11.2777L20.8882 11.2928L20.9407 11.3173L20.9927 11.3482L21.0457 11.3891L21.0271 11.3733C21.063 11.4017 21.0955 11.4342 21.1239 11.4702L21.1537 11.511L21.177 11.5483L21.1957 11.5857L21.2155 11.6335L21.2301 11.6802L21.2441 11.7449L21.2482 11.7805L21.2505 11.833L21.2505 16.2097C21.2503 16.3584 21.1934 16.5014 21.0913 16.6095C20.9893 16.7177 20.8498 16.7827 20.7013 16.7914C20.5529 16.8001 20.4068 16.7518 20.2928 16.6564C20.1787 16.561 20.1055 16.4256 20.0879 16.278L20.0838 16.2097L20.0838 13.2417L11.7468 21.5782Z" fill="white"/>
<defs>
<linearGradient id="paint0_linear_112_3649" x1="7.22051" y1="4.91034" x2="34.9568" y2="23.6981" gradientUnits="userSpaceOnUse">
<stop stop-color="#6A1B9A"/>
<stop offset="1" stop-color="#6A1B9A" stop-opacity="0.9"/>
</linearGradient>
</defs>
</svg>
