<svg width="68" height="68" viewBox="0 0 68 68" fill="none" xmlns="http://www.w3.org/2000/svg">
<g clip-path="url(#clip0_331_6008)">
<path fill-rule="evenodd" clip-rule="evenodd" d="M34 0C15.2469 0 0 15.2469 0 34C0 52.7531 15.2469 68 34 68C52.7531 68 68 52.7531 68 34C68 15.2469 52.7531 0 34 0Z" fill="#4BAE4F"/>
<path fill-rule="evenodd" clip-rule="evenodd" d="M50.4421 22.5382C51.2656 23.3616 51.2656 24.7163 50.4421 25.5397L30.5203 45.4616C30.1085 45.8733 29.564 46.0858 29.0195 46.0858C28.475 46.0858 27.9304 45.8733 27.5187 45.4616L17.5578 35.5007C16.7343 34.6772 16.7343 33.3226 17.5578 32.4991C18.3812 31.6757 19.7359 31.6757 20.5593 32.4991L29.0195 40.9593L47.4406 22.5382C48.264 21.7015 49.6187 21.7015 50.4421 22.5382Z" fill="white"/>
</g>
<defs>
<clipPath id="clip0_331_6008">
<rect width="68" height="68" fill="white"/>
</clipPath>
</defs>
</svg>
