<svg width="24" height="24" viewBox="0 0 24 24" fill="none" xmlns="http://www.w3.org/2000/svg">
<path d="M13.75 4.5C14.612 4.5 15.4386 4.84241 16.0481 5.4519C16.6576 6.0614 17 6.88805 17 7.75V7.923L20.864 5.605C20.9778 5.53669 21.1077 5.4998 21.2404 5.4981C21.3731 5.49641 21.5039 5.52996 21.6194 5.59535C21.735 5.66073 21.831 5.75559 21.8979 5.87025C21.9648 5.98492 22 6.11527 22 6.248V17.75C22 17.8827 21.9648 18.0131 21.8979 18.1277C21.831 18.2424 21.735 18.3373 21.6194 18.4027C21.5039 18.468 21.3731 18.5016 21.2404 18.4999C21.1077 18.4982 20.9778 18.4613 20.864 18.393L17 16.075V16.25C17 17.112 16.6576 17.9386 16.0481 18.5481C15.4386 19.1576 14.612 19.5 13.75 19.5H5.25C4.38805 19.5 3.5614 19.1576 2.9519 18.5481C2.34241 17.9386 2 17.112 2 16.25V7.75C2 6.88805 2.34241 6.0614 2.9519 5.4519C3.5614 4.84241 4.38805 4.5 5.25 4.5H13.75ZM13.75 6H5.25C4.78587 6 4.34075 6.18437 4.01256 6.51256C3.68437 6.84075 3.5 7.28587 3.5 7.75V16.25C3.5 17.216 4.284 18 5.25 18H13.75C14.2141 18 14.6592 17.8156 14.9874 17.4874C15.3156 17.1592 15.5 16.7141 15.5 16.25V7.75C15.5 7.28587 15.3156 6.84075 14.9874 6.51256C14.6592 6.18437 14.2141 6 13.75 6ZM20.5 7.573L17 9.674V14.325L20.5 16.425V7.573Z" fill="white"/>
</svg>
