<svg width="16" height="14" viewBox="0 0 16 14" fill="none" xmlns="http://www.w3.org/2000/svg">
<path d="M3.20833 0.333374H12.7917C13.4834 0.333329 14.149 0.598002 14.6519 1.0731C15.1547 1.5482 15.4567 2.1977 15.4958 2.88837L15.5 3.04171V10.9584C15.5 11.6502 15.2354 12.3157 14.7603 12.8186C14.2852 13.3214 13.6357 13.6234 12.945 13.6625L12.7917 13.6667H3.20833C2.51655 13.6668 1.85098 13.4021 1.34814 12.927C0.845306 12.4519 0.543332 11.8024 0.504167 11.1117L0.5 10.9584V3.04171C0.499955 2.34993 0.764628 1.68435 1.23973 1.18152C1.71482 0.67868 2.36433 0.376706 3.055 0.337541L3.20833 0.333374ZM12.7917 1.58337H3.20833C2.84234 1.58339 2.48974 1.72102 2.22051 1.96894C1.95128 2.21686 1.78512 2.55696 1.755 2.92171L1.75 3.04171V10.9584C1.75001 11.3244 1.88764 11.677 2.13557 11.9462C2.38349 12.2154 2.72358 12.3816 3.08833 12.4117L3.20833 12.4167H12.7917C13.1578 12.4167 13.5105 12.2789 13.7798 12.0308C14.049 11.7827 14.2151 11.4424 14.245 11.0775L14.25 10.9584V3.04171C14.25 2.67558 14.1122 2.32287 13.8641 2.05362C13.616 1.78437 13.2757 1.61829 12.9108 1.58837L12.7917 1.58337ZM6.3775 4.98754C6.42119 4.90036 6.49407 4.83127 6.58345 4.79228C6.67283 4.7533 6.77305 4.74691 6.86667 4.77421L6.93667 4.80171L10.5883 6.62671C10.652 6.65846 10.7064 6.70597 10.7465 6.76473C10.7866 6.82348 10.811 6.89152 10.8173 6.96236C10.8237 7.0332 10.8118 7.10448 10.7828 7.16943C10.7538 7.23437 10.7086 7.29081 10.6517 7.33337L10.5883 7.37254L6.93667 9.19837C6.87884 9.22738 6.81505 9.24252 6.75036 9.24259C6.68567 9.24267 6.62184 9.22768 6.56395 9.19881C6.50605 9.16994 6.45567 9.12799 6.4168 9.07628C6.37793 9.02457 6.35164 8.96451 6.34 8.90087L6.33333 8.82504V5.17421C6.33334 5.1094 6.34846 5.04548 6.3775 4.98754Z" fill="#404040"/>
</svg>
