<svg width="20" height="20" viewBox="0 0 20 20" fill="none" xmlns="http://www.w3.org/2000/svg">
<path d="M10 6C10.5304 6 11.0391 6.21071 11.4142 6.58579C11.7893 6.96086 12 7.46957 12 8V12C12 12.5304 11.7893 13.0391 11.4142 13.4142C11.0391 13.7893 10.5304 14 10 14H7.00001C6.46958 14 5.96087 13.7893 5.58579 13.4142C5.21072 13.0391 5.00001 12.5304 5.00001 12V8C5.00001 7.46957 5.21072 6.96086 5.58579 6.58579C5.96087 6.21071 6.46958 6 7.00001 6H10ZM13 11.162V8.838L14.734 7.196C14.8405 7.09507 14.9742 7.02758 15.1186 7.00188C15.263 6.97618 15.4118 6.9934 15.5466 7.0514C15.6813 7.10941 15.7961 7.20565 15.8767 7.32822C15.9573 7.45079 16.0001 7.59431 16 7.741V12.259C16.0001 12.4057 15.9573 12.5492 15.8767 12.6718C15.7961 12.7943 15.6813 12.8906 15.5466 12.9486C15.4118 13.0066 15.263 13.0238 15.1186 12.9981C14.9742 12.9724 14.8405 12.9049 14.734 12.804L13 11.162ZM20 10C20 4.477 15.523 0 10 0C4.47701 0 8.41695e-06 4.477 8.41695e-06 10C-0.0020688 11.5979 0.38036 13.1729 1.11501 14.592L0.0470083 18.415C-0.0125631 18.6285 -0.0143139 18.8539 0.0419355 19.0683C0.0981849 19.2826 0.210412 19.4782 0.367118 19.6349C0.523824 19.7916 0.719374 19.9038 0.933732 19.9601C1.14809 20.0163 1.37355 20.0146 1.58701 19.955L5.41301 18.888C6.83083 19.6208 8.404 20.0022 10 20C15.523 20 20 15.523 20 10ZM1.50001 10C1.50055 8.13472 2.11464 6.32141 3.24759 4.83963C4.38055 3.35784 5.96946 2.28988 7.76937 1.80037C9.56927 1.31087 11.4802 1.42702 13.2076 2.13091C14.935 2.83479 16.3828 4.08733 17.328 5.69542C18.2732 7.30351 18.6631 9.17785 18.4377 11.0295C18.2124 12.8811 17.3842 14.6071 16.0809 15.9416C14.7776 17.276 13.0715 18.1446 11.2257 18.4136C9.37996 18.6826 7.49694 18.337 5.86701 17.43L5.59701 17.28L1.61101 18.391L2.72401 14.407L2.57301 14.137C1.86709 12.8726 1.49762 11.4481 1.50001 10Z" fill="white"/>
</svg>
