<svg width="25" height="24" viewBox="0 0 25 24" fill="none" xmlns="http://www.w3.org/2000/svg">
<path d="M16.625 13C16.4261 13 16.2353 13.079 16.0947 13.2197C15.954 13.3603 15.875 13.5511 15.875 13.75C15.875 13.9489 15.954 14.1397 16.0947 14.2803C16.2353 14.421 16.4261 14.5 16.625 14.5H18.625C18.8239 14.5 19.0147 14.421 19.1553 14.2803C19.296 14.1397 19.375 13.9489 19.375 13.75C19.375 13.5511 19.296 13.3603 19.1553 13.2197C19.0147 13.079 18.8239 13 18.625 13H16.625ZM19.625 5.75C19.625 5.02065 19.3353 4.32118 18.8195 3.80546C18.3038 3.28973 17.6043 3 16.875 3H5.625C5.31616 3.00005 5.01064 3.06368 4.72746 3.18693C4.44428 3.31018 4.18951 3.49041 3.979 3.71639C3.7685 3.94238 3.60677 4.20928 3.50389 4.50047C3.40101 4.79167 3.35918 5.10093 3.381 5.409C3.37717 5.43919 3.37517 5.46957 3.375 5.5V17.75C3.375 18.612 3.71741 19.4386 4.3269 20.0481C4.9364 20.6576 5.76305 21 6.625 21H19.125C19.8543 21 20.5538 20.7103 21.0695 20.1945C21.5853 19.6788 21.875 18.9793 21.875 18.25V8.75C21.8752 8.10725 21.6502 7.48473 21.2392 6.99058C20.8282 6.49643 20.257 6.16186 19.625 6.045V5.75ZM4.875 5.25C4.875 5.05109 4.95402 4.86032 5.09467 4.71967C5.23532 4.57902 5.42609 4.5 5.625 4.5H16.875C17.565 4.5 18.125 5.06 18.125 5.75V6H5.625C5.42609 6 5.23532 5.92098 5.09467 5.78033C4.95402 5.63968 4.875 5.44891 4.875 5.25ZM5.625 7.5H19.125C19.815 7.5 20.375 8.06 20.375 8.75V18.25C20.375 18.94 19.815 19.5 19.125 19.5H6.625C6.16087 19.5 5.71575 19.3156 5.38756 18.9874C5.05937 18.6592 4.875 18.2141 4.875 17.75V7.372C5.11 7.455 5.362 7.5 5.625 7.5Z" fill="#676D75"/>
</svg>
